<?xml version="1.0" encoding="utf-8"?>
<!-- Generator: $$$/GeneralStr/196=Adobe Illustrator 27.6.0, SVG Export Plug-In . SVG Version: 6.00 Build 0)  -->
<svg version="1.1" id="圖層_1" xmlns="http://www.w3.org/2000/svg" xmlns:xlink="http://www.w3.org/1999/xlink" x="0px" y="0px"
	 viewBox="0 0 16 16" style="enable-background:new 0 0 16 16;" xml:space="preserve">
<style type="text/css">
	.st0{fill:#FFFFFF;}
	.st1{fill:#161616;}
</style>
<path class="st0" d="M10,0c0,1.1-0.9,2-2,2S6,1.1,6,0H3.5C2.7,0,2,0.7,2,1.5v13C2,15.3,2.7,16,3.5,16l0,0h9c0.8,0,1.5-0.7,1.5-1.5
	l0,0v-13C14,0.7,13.3,0,12.5,0H10z"/>
<path class="st1" d="M4.5,5h7C11.8,5,12,5.2,12,5.5S11.8,6,11.5,6h-7C4.2,6,4,5.8,4,5.5S4.2,5,4.5,5z"/>
<path class="st1" d="M4.5,7h4C8.8,7,9,7.2,9,7.5S8.8,8,8.5,8h-4C4.2,8,4,7.8,4,7.5S4.2,7,4.5,7z"/>
<path class="st1" d="M3.8,14.1v-3.3C3.6,10.9,3.2,10.9,3,11v-0.7c0.4-0.1,0.9-0.3,1.1-0.6h0.7v4.5H3.8z"/>
<path class="st1" d="M9.1,11.8c0,1.2-0.4,2.3-1.7,2.3c-1.3,0-1.7-1.1-1.7-2.3c0-1.2,0.4-2.3,1.7-2.3C8.7,9.6,9.1,10.6,9.1,11.8z
	 M6.7,11.9c0,0.8,0.1,1.6,0.7,1.6c0.6,0,0.7-0.7,0.7-1.6c0-0.9-0.1-1.5-0.7-1.5C6.8,10.3,6.7,10.9,6.7,11.9z"/>
<path class="st1" d="M11.8,14.1v-1h-2v-0.8l1.9-2.6h1.1v2.7h0.5l-0.1,0.8h-0.4v1H11.8z M11.8,11.5c0-0.5,0-0.8,0-1
	c-0.2,0.4-0.8,1.2-1.2,1.8h1.2V11.5z"/>
</svg>
